<svg width="100" height="100" viewBox="0 0 100 100" fill="none" xmlns="http://www.w3.org/2000/svg">
<g clip-path="url(#clip0_593_188)">
<path d="M87.84 0H12.16C5.44422 0 0 5.44422 0 12.16V87.84C0 94.5558 5.44422 100 12.16 100H87.84C94.5558 100 100 94.5558 100 87.84V12.16C100 5.44422 94.5558 0 87.84 0Z" fill="url(#paint0_linear_593_188)"/>
<path d="M50.4299 90.21C50.0899 90.21 49.7399 90.17 49.3999 90.09C47.4899 89.63 46.1499 87.88 46.1499 85.84V73.56H27.3899C25.8899 76.1 23.1399 77.72 20.1199 77.72C17.5899 77.72 15.2099 76.6 13.5999 74.64C11.9899 72.68 11.3499 70.12 11.8499 67.6C12.4999 64.31 15.1499 61.66 18.4399 61.01C18.9999 60.9 19.5599 60.84 20.1199 60.84C23.1399 60.84 25.8899 62.46 27.3899 65H31.4199L29.2199 58.32C25.1699 57.71 22.0499 54.2 22.0499 49.98C22.0499 45.33 25.8399 41.54 30.4899 41.54C31.0399 41.54 31.6099 41.59 32.1599 41.7C35.5099 42.35 38.1799 45.06 38.7899 48.43C39.2199 50.83 38.6199 53.24 37.1699 55.12L40.4199 65H46.1499V45.74L32.4899 33.84C31.4399 34.3 30.3099 34.53 29.1399 34.53C28.5599 34.53 27.9799 34.47 27.4099 34.35C24.1799 33.69 21.5599 31.09 20.8899 27.88C20.3599 25.35 20.9799 22.76 22.5899 20.78C24.1999 18.8 26.5899 17.66 29.1399 17.66C29.4799 17.66 29.8199 17.68 30.1599 17.72C32.9099 18.05 35.3299 19.78 36.6499 22.36C37.3899 23.81 37.6899 25.32 37.5399 26.87L53.3099 40.71C54.2199 41.58 54.6899 42.7 54.6899 43.86V55.23L59.5799 51.62V25.22C57.0399 23.72 55.4199 20.96 55.4199 17.96C55.4199 13.31 59.2099 9.52002 63.8599 9.52002C64.4199 9.52002 64.9899 9.58002 65.5499 9.69002C68.8299 10.34 71.4699 12.97 72.1299 16.25C72.8599 19.88 71.2099 23.44 68.1399 25.23V45.28L71.4899 42.78C71.3299 41.63 71.4199 40.45 71.7399 39.31C72.6299 36.19 75.2699 33.84 78.4599 33.32C78.9199 33.25 79.3899 33.21 79.8499 33.21C82.3699 33.21 84.7399 34.33 86.3499 36.27C87.9599 38.21 88.6099 40.77 88.1299 43.27C87.5199 46.49 84.9599 49.14 81.7699 49.86C81.1399 50 80.4899 50.08 79.8499 50.08C78.7899 50.08 77.7499 49.88 76.7699 49.49L64.5299 58.58L74.5999 64.95C75.8699 64.22 77.3099 63.83 78.7799 63.83C81.0499 63.83 83.1899 64.72 84.7899 66.35C86.3899 67.97 87.2499 70.12 87.2199 72.4C87.1499 76.92 83.4299 80.65 78.9099 80.71H78.7799C74.1599 80.71 70.3999 76.98 70.3399 72.38L57.0399 64.12L54.6899 65.85V85.92C54.6899 88.28 52.7699 90.19 50.4199 90.19L50.4299 90.21Z" fill="url(#paint1_linear_593_188)"/>
<path d="M63.8791 11.6602C64.2991 11.6602 64.7291 11.7002 65.1591 11.7902C67.5991 12.2702 69.5791 14.2402 70.0591 16.6802C70.7091 19.9402 68.8291 22.8802 66.0291 23.9002V49.5302L73.8891 43.6702C73.5091 42.5302 73.4191 41.2502 73.8091 39.9102C74.4691 37.6002 76.4491 35.8202 78.8191 35.4402C79.1691 35.3802 79.5191 35.3602 79.8691 35.3602C83.7491 35.3602 86.8291 38.8802 86.0591 42.9002C85.5991 45.3102 83.6991 47.2702 81.3091 47.8202C80.8191 47.9302 80.3291 47.9802 79.8591 47.9802C78.6491 47.9802 77.5191 47.6302 76.5591 47.0402L60.7891 58.7502L74.6791 67.5302C75.7891 66.5702 77.2291 65.9902 78.7991 65.9902C82.3092 65.9902 85.1591 68.8702 85.1091 72.4002C85.0591 75.7502 82.2391 78.5702 78.8891 78.6202C78.8591 78.6202 78.8291 78.6202 78.7991 78.6202C75.3191 78.6202 72.4891 75.7902 72.4891 72.3102C72.4891 71.9602 72.5291 71.6202 72.5791 71.2902L56.9591 61.5902L52.5891 64.8202V85.9602C52.5891 87.1502 51.6291 88.1102 50.4391 88.1102C50.2691 88.1102 50.0891 88.0902 49.9091 88.0502C48.9291 87.8202 48.2891 86.8702 48.2891 85.8602V71.4602H26.6691C26.4691 71.4602 26.2791 71.4202 26.0991 71.3702C25.2391 73.8402 22.8991 75.6202 20.1391 75.6202C16.2391 75.6202 13.1591 72.0702 13.9491 68.0402C14.4291 65.5902 16.4091 63.6102 18.8591 63.1302C19.2891 63.0502 19.7191 63.0002 20.1291 63.0002C22.8891 63.0002 25.2291 64.7802 26.0891 67.2502C26.2691 67.2002 26.4591 67.1602 26.6591 67.1602H34.3591L30.7891 56.3102C30.6891 56.3102 30.5891 56.3302 30.4891 56.3302C27.0091 56.3302 24.1791 53.5002 24.1791 50.0202C24.1791 46.5402 27.0091 43.7102 30.4891 43.7102C30.8991 43.7102 31.3291 43.7502 31.7491 43.8302C34.2491 44.3202 36.2391 46.3502 36.6891 48.8502C37.0991 51.1402 36.2691 53.2502 34.7591 54.6502L38.8791 67.1702H48.2791V44.8202L32.7691 31.3002C31.7391 32.0202 30.4991 32.4502 29.1491 32.4502C28.7191 32.4502 28.2891 32.4102 27.8391 32.3202C25.4291 31.8302 23.4791 29.9002 22.9791 27.5002C22.1291 23.4302 25.2291 19.8302 29.1491 19.8302C29.3991 19.8302 29.6591 19.8502 29.9191 19.8802C32.0091 20.1302 33.8091 21.5002 34.7691 23.3802C35.5691 24.9502 35.5991 26.4202 35.2491 27.7402L51.9091 42.3702C52.3291 42.7802 52.5691 43.3302 52.5691 43.9202V59.5102L61.7091 52.7602V23.9502C59.2891 23.0702 57.5491 20.7502 57.5491 18.0202C57.5491 14.5402 60.3791 11.7102 63.8591 11.7102M63.8791 19.9802C64.0391 19.9802 64.2091 19.9602 64.3791 19.9202C65.0791 19.7502 65.6591 19.1702 65.8291 18.4702C66.1491 17.1402 65.1491 15.9502 63.8791 15.9502C63.7191 15.9502 63.5491 15.9702 63.3791 16.0102C62.6791 16.1802 62.0991 16.7602 61.9291 17.4602C61.5991 18.7902 62.6091 19.9802 63.8791 19.9802ZM29.1591 28.1202C29.3291 28.1202 29.4891 28.1002 29.6691 28.0602C30.3691 27.8902 30.9491 27.3102 31.1191 26.6102C31.4391 25.2802 30.4391 24.1002 29.1591 24.1002C28.9991 24.1002 28.8291 24.1202 28.6591 24.1602C27.9591 24.3302 27.3791 24.9102 27.2091 25.6102C26.8791 26.9402 27.8891 28.1302 29.1591 28.1302M79.8591 43.6702C80.0191 43.6702 80.1891 43.6502 80.3591 43.6102C81.0591 43.4402 81.6391 42.8602 81.8091 42.1602C82.1291 40.8302 81.1291 39.6402 79.8591 39.6402C79.6991 39.6402 79.5291 39.6602 79.3591 39.7002C78.6591 39.8702 78.0791 40.4502 77.9091 41.1502C77.5891 42.4802 78.5891 43.6702 79.8591 43.6702ZM30.4891 52.0002C31.7591 52.0002 32.7691 50.8102 32.4391 49.4902C32.2691 48.7902 31.6891 48.2102 30.9891 48.0402C30.8191 48.0002 30.6491 47.9802 30.4891 47.9802C29.2191 47.9802 28.2091 49.1702 28.5391 50.5002C28.7091 51.2002 29.2891 51.7802 29.9891 51.9502C30.1591 51.9902 30.3291 52.0102 30.4891 52.0102M20.1291 71.3002C20.2891 71.3002 20.4591 71.2802 20.6291 71.2402C21.3291 71.0702 21.9091 70.4902 22.0791 69.7902C22.3991 68.4602 21.3991 67.2702 20.1291 67.2702C19.9691 67.2702 19.7991 67.2902 19.6291 67.3302C18.9291 67.5002 18.3491 68.0802 18.1791 68.7802C17.8591 70.1102 18.8591 71.3002 20.1291 71.3002ZM78.7891 74.3102C78.9492 74.3102 79.1191 74.2902 79.2891 74.2502C79.9891 74.0802 80.5691 73.5002 80.7391 72.8002C81.0591 71.4702 80.0591 70.2802 78.7891 70.2802C78.6291 70.2802 78.4591 70.3002 78.2891 70.3402C77.5891 70.5102 77.0091 71.0902 76.8391 71.7902C76.5191 73.1202 77.5191 74.3102 78.7891 74.3102ZM63.8791 7.41016C61.0591 7.41016 58.4091 8.51016 56.4091 10.5102C54.4091 12.5102 53.3091 15.1602 53.3091 17.9802C53.3091 21.3202 54.8991 24.4002 57.4691 26.3702V50.5702L56.8291 51.0402V43.8802C56.8291 42.1502 56.1091 40.4702 54.8691 39.2702L54.7991 39.2002L54.7291 39.1402L39.7191 25.9602C39.6891 24.4002 39.3091 22.8602 38.5691 21.4102C36.9291 18.2002 33.8891 16.0402 30.4391 15.6302C30.0191 15.5802 29.5891 15.5502 29.1691 15.5502C25.9791 15.5502 22.9891 16.9702 20.9691 19.4602C18.9491 21.9402 18.1791 25.1802 18.8391 28.3402C19.6991 32.4402 22.9091 35.6202 27.0191 36.4602C27.7291 36.6102 28.4591 36.6802 29.1791 36.6802C30.1691 36.6802 31.1291 36.5402 32.0691 36.2802L44.0591 46.7302V62.9002H41.9891L39.5491 55.4802C40.8791 53.3002 41.3791 50.6802 40.9091 48.0802C40.1391 43.8502 36.7991 40.4602 32.5991 39.6402C31.9091 39.5102 31.2091 39.4402 30.5191 39.4402C27.6991 39.4402 25.0491 40.5402 23.0491 42.5402C21.0491 44.5402 19.9491 47.1902 19.9491 50.0102C19.9491 54.8302 23.1891 58.9002 27.6091 60.1702L28.4791 62.8202C26.5191 60.3002 23.4691 58.7502 20.1491 58.7502C19.4491 58.7502 18.7491 58.8202 18.0591 58.9602C13.9291 59.7702 10.6091 63.0902 9.78914 67.2302C9.16914 70.3702 9.96914 73.5802 11.9891 76.0302C14.0091 78.4801 16.9791 79.8902 20.1491 79.8902C23.4991 79.8902 26.5791 78.3002 28.5491 75.7302H44.0591V85.8802C44.0591 88.9102 46.0591 91.5101 48.9291 92.2001C49.4291 92.3202 49.9491 92.3802 50.4591 92.3802C53.9891 92.3802 56.8591 89.5102 56.8591 85.9802V66.9902L57.1791 66.7502L68.3391 73.6802C68.9991 78.8802 73.4491 82.9102 78.8191 82.9102H78.9791C84.6391 82.8302 89.2991 78.1602 89.3891 72.5002C89.4291 69.6502 88.3491 66.9602 86.3491 64.9302C84.3491 62.9002 81.6791 61.7802 78.8291 61.7802C77.4291 61.7802 76.0591 62.0602 74.7891 62.5902L68.3391 58.5102L77.2091 51.9202C78.0791 52.1502 78.9891 52.2702 79.8991 52.2702C80.6992 52.2702 81.4991 52.1802 82.2891 52.0002C86.3591 51.0702 89.4891 47.8302 90.2691 43.7302C90.8591 40.6002 90.0491 37.4102 88.0391 34.9702C86.0191 32.5302 83.0592 31.1402 79.8991 31.1402C79.3291 31.1402 78.7491 31.1902 78.1691 31.2802C74.7091 31.8402 71.7691 34.1202 70.3091 37.2702V26.4202C73.4691 24.0302 75.0791 19.9902 74.2591 15.8902C73.4391 11.7802 70.1191 8.47016 66.0091 7.66016C65.3191 7.52016 64.6091 7.45016 63.9091 7.45016L63.8791 7.41016Z" fill="white"/>
</g>
<defs>
<linearGradient id="paint0_linear_593_188" x1="2.17" y1="2.17" x2="98.53" y2="98.53" gradientUnits="userSpaceOnUse">
<stop offset="0.01" stop-color="#5757B8"/>
<stop offset="1" stop-color="#AFEE91"/>
</linearGradient>
<linearGradient id="paint1_linear_593_188" x1="20.8599" y1="22.48" x2="80.6799" y2="82.3" gradientUnits="userSpaceOnUse">
<stop offset="0.01" stop-color="#5757B8"/>
<stop offset="0.21" stop-color="#6C7BAE"/>
<stop offset="0.58" stop-color="#90B89E"/>
<stop offset="0.86" stop-color="#A6DF94"/>
<stop offset="1" stop-color="#AFEE91"/>
</linearGradient>
<clipPath id="clip0_593_188">
<rect width="100" height="100" fill="white"/>
</clipPath>
</defs>
</svg>
