<svg width="240" height="72" viewBox="0 0 240 72" fill="none"
    xmlns="http://www.w3.org/2000/svg">
    <path d="M30.4271 41.3471C30.2658 39.2762 29.2653 37.5936 27.7162 36.6229C29.588 35.6521 30.7499 34.0666 30.7499 31.7369C30.7499 27.6275 27.9744 24.7477 23.2625 24.7477H14V47.3979H18.2924V38.8879H23.1656C24.8439 38.8879 26.038 40.1175 26.1993 41.8324L26.748 47.3979H30.9758L30.4271 41.3471ZM18.2924 28.3394H23.0688C25.5861 28.3394 26.6189 29.9249 26.6189 31.7369C26.6189 33.5489 25.5861 35.1991 23.0688 35.1991H18.2924V28.3394Z" fill="black"/>
    <path d="M34.013 24.1005V28.5335H38.2731V24.1005H34.013ZM34.1744 47.3979H38.144V31.0897H34.1744V47.3979Z" fill="black"/>
    <path d="M52.6799 31.0897V32.9341C51.744 31.6722 49.9689 30.8309 47.9357 30.8309C43.0947 30.8309 40.2546 34.2608 40.2546 39.2438C40.2546 44.2269 43.0947 47.6568 48.0002 47.6568C50.0335 47.6568 51.9053 46.8478 52.7122 45.5859V47.9156C52.7122 49.6306 51.5826 50.8278 50.0012 50.8278H42.5138V53.9988H50.5498C54.1967 53.9988 56.6495 51.7015 56.6495 48.3039V31.0897H52.6799ZM48.5489 44.2269C45.9025 44.2269 44.192 42.2531 44.192 39.2438C44.192 36.2346 45.9025 34.2608 48.5489 34.2608C51.2276 34.2608 52.9703 36.2346 52.9703 39.2438C52.9703 42.2531 51.2276 44.2269 48.5489 44.2269Z" fill="black"/>
    <path d="M59.8597 47.3979H63.797V38.4996C63.797 36.1051 65.3784 34.3578 67.573 34.3578C69.6063 34.3578 70.994 35.911 70.994 38.1437V47.3979H74.9314V37.3024C74.9314 33.4842 72.5431 30.8309 68.8962 30.8309C66.5726 30.8309 64.7007 31.834 63.797 33.6136V24.1005H59.8597V47.3979Z" fill="black"/>
    <path d="M79.1392 26.1714V31.0897H75.9442V34.4226H79.1392V41.703C79.1392 45.327 81.4629 47.3979 85.013 47.3979H87.6271V44.0327H85.4648C83.9803 44.0327 83.1089 43.1914 83.1089 41.5412V34.4226H87.6271V31.0897H83.1089V26.1714H79.1392Z" fill="black"/>
    <path d="M99.9336 47.6568C105.485 47.6568 109.616 44.4534 110.067 39.7615H105.807C105.42 42.2207 103.032 43.9357 99.9336 43.9357C95.9963 43.9357 93.0271 41.2176 93.0271 36.0728C93.0271 30.928 95.9963 28.1776 99.9336 28.1776C102.967 28.1776 105.356 29.8925 105.678 32.384H110.132C109.519 27.6922 105.388 24.4888 99.9336 24.4888C94.0276 24.4888 88.7348 28.3717 88.7348 36.0728C88.7348 43.7739 93.9308 47.6568 99.9336 47.6568Z" fill="black"/>
    <path d="M118.606 30.8309C114.378 30.8309 111.635 33.3548 111.441 36.5905H114.991C115.056 35.1344 116.314 33.8078 118.412 33.8078C120.51 33.8078 121.736 34.9403 121.736 36.5258C121.736 37.1729 121.349 37.6259 120.542 37.6259H117.541C113.894 37.6259 111.441 39.5998 111.441 42.7708C111.441 45.5859 113.636 47.6568 116.863 47.6568C119.187 47.6568 121.059 46.589 121.736 44.9711V47.3979H125.641V36.9141C125.641 33.2253 122.737 30.8309 118.606 30.8309ZM117.799 44.7122C116.314 44.7122 115.282 43.8709 115.282 42.609C115.282 41.1853 116.411 40.2469 118.089 40.2469H121.736V40.5058C121.736 42.9649 120.284 44.7122 117.799 44.7122Z" fill="black"/>
    <path d="M128.365 53.9988H132.302V45.6182C133.206 46.8802 134.949 47.6568 136.917 47.6568C141.694 47.6568 144.76 44.2269 144.76 39.2438C144.76 34.2608 141.888 30.8309 137.208 30.8309C135.046 30.8309 133.271 31.7369 132.302 33.1283V31.0897H128.365V53.9988ZM136.466 44.2269C133.787 44.2269 132.044 42.2531 132.044 39.2438C132.044 36.2346 133.787 34.2608 136.466 34.2608C139.08 34.2608 140.822 36.2346 140.822 39.2438C140.822 42.2531 139.08 44.2269 136.466 44.2269Z" fill="black"/>
    <path d="M146.459 24.1005V28.5335H150.719V24.1005H146.459ZM146.621 47.3979H150.59V31.0897H146.621V47.3979Z" fill="black"/>
    <path d="M155.347 26.1714V31.0897H152.152V34.4226H155.347V41.703C155.347 45.327 157.671 47.3979 161.221 47.3979H163.835V44.0327H161.673C160.188 44.0327 159.317 43.1914 159.317 41.5412V34.4226H163.835V31.0897H159.317V26.1714H155.347Z" fill="black"/>
    <path d="M171.825 30.8309C167.598 30.8309 164.854 33.3548 164.661 36.5905H168.211C168.275 35.1344 169.534 33.8078 171.632 33.8078C173.729 33.8078 174.956 34.9403 174.956 36.5258C174.956 37.1729 174.569 37.6259 173.762 37.6259H170.76C167.113 37.6259 164.661 39.5998 164.661 42.7708C164.661 45.5859 166.855 47.6568 170.083 47.6568C172.406 47.6568 174.278 46.589 174.956 44.9711V47.3979H178.861V36.9141C178.861 33.2253 175.956 30.8309 171.825 30.8309ZM171.018 44.7122C169.534 44.7122 168.501 43.8709 168.501 42.609C168.501 41.1853 169.631 40.2469 171.309 40.2469H174.956V40.5058C174.956 42.9649 173.504 44.7122 171.018 44.7122Z" fill="black"/>
    <path d="M181.585 47.3979H185.522V24.1005H181.585V47.3979Z" fill="black"/>
    <path d="M225.729 31.0491L220.241 18L207.381 24.8368L209.336 28.5318L215.462 25.2741L212.709 33.4094C212.701 33.4327 211.909 35.7642 210.789 38.2043C210.057 39.8009 209.442 40.8847 208.956 41.6171C207.988 42.8598 207.634 41.7024 207.634 41.7024L207.633 41.7048C207.579 41.5349 207.524 41.3472 207.468 41.1399C206.455 37.3602 204.68 32.3096 200.987 32.0857C196.79 31.8324 194.03 37.7976 191.563 43.9302C191.316 44.5454 191.082 45.1263 190.963 45.371C189.162 49.0771 187.654 50.1511 187.639 50.1609C187.639 50.1609 185.923 51.3945 187.078 53.0463C188.232 54.6988 189.857 53.702 189.857 53.702C190.26 53.4567 192.386 51.9907 194.713 47.202C194.895 46.8266 195.12 46.2678 195.431 45.4943C196.081 43.8811 197.061 41.4429 198.199 39.4065C198.722 38.4699 199.172 37.8117 199.544 37.3486C199.681 37.1842 200.715 36.0458 201.75 37.5792C202.22 38.449 202.811 39.88 203.441 42.2262C203.768 43.4444 204.762 47.1529 207.773 47.2492C207.812 47.2504 207.85 47.2511 207.888 47.2511C210.109 47.2511 212.091 45.1784 214.295 40.5584C215.66 37.6964 216.62 34.8693 216.659 34.7515L219.379 26.7143L221.886 32.6734L225.729 31.0491Z" fill="#5070E6"/>
</svg>
